# File created by Blade
# Date/Time:  Tue Apr 07 20:29:34 2015
# Frame Rate: 120.000 fps
#------------------------------------------------------
:FULLY-SPECIFIED
:DEGREES
3214
root 0.908893 34.386334 -5.661055 28.391105 -14.174480 -30.212017
Spine -8.357975 8.650156 10.540439
Head 13.620668 -0.902532 12.349494
LeftShoulder -19.475496 41.192439 17.974789
LeftArm 60.121167 -35.786190 -75.260803
LeftForeArm 0.654200 -0.000000 7.651861
LeftHand 10.881159 -0.000000 2.550678
LeftHandThumb1 -26.253704 0.000000 33.147579
RightShoulder -3.266298 1.241570 -22.131605
RightArm 7.196639 17.815000 56.955423
RightForeArm 0.065673 -0.000000 20.092774
RightHand 2.327228 -0.000000 13.347498
RightHandThumb1 -24.326973 -0.000000 -32.862282
LeftUpLeg -21.676609 10.480351 22.847171
LeftLeg 8.531517 -0.000000 -0.000000
LeftFoot -8.494243 15.185024 -18.098558
LeftToeBase -3.315130 -0.000000 0.000000
RightUpLeg -14.503724 -14.006734 -25.201707
RightLeg 81.304756 -0.000000 -0.000000
RightFoot 41.300489 -16.464846 -0.025146
RightToeBase 33.553316 -0.000000 -0.000000
3215
root 0.887259 34.400185 -5.610204 28.188791 -14.177028 -30.033367
Spine -8.403188 8.396819 10.363721
Head 13.892419 -0.796818 12.067360
LeftShoulder -19.365408 41.138774 17.935616
LeftArm 60.095693 -35.319855 -75.416851
LeftForeArm 0.676740 -0.000000 7.686440
LeftHand 10.827481 -0.000000 2.471846
LeftHandThumb1 -26.253704 0.000000 33.147579
RightShoulder -3.270356 1.147328 -22.245066
RightArm 7.164193 17.534835 57.132808
RightForeArm 0.024370 -0.000000 19.680907
RightHand 2.282231 -0.000000 13.523852
RightHandThumb1 -24.326973 -0.000000 -32.862282
LeftUpLeg -21.361538 10.380648 22.767164
LeftLeg 8.354932 -0.000000 -0.000000
LeftFoot -8.327818 14.954790 -18.383275
LeftToeBase -3.350502 -0.000000 0.000000
RightUpLeg -14.180219 -13.899762 -24.679866
RightLeg 80.379982 -0.000000 -0.000000
RightFoot 41.513317 -16.351118 -0.203471
RightToeBase 32.738057 -0.000000 -0.000000
3216
root 0.869461 34.412488 -5.556340 27.960613 -14.156033 -29.845599
Spine -8.426585 8.139593 10.222267
Head 14.153004 -0.702683 11.740945
LeftShoulder -19.281092 41.077311 17.853472
LeftArm 60.116974 -34.881056 -75.643755
LeftForeArm 0.761528 -0.000000 7.719326
LeftHand 10.701849 -0.000000 2.444357
LeftHandThumb1 -26.253704 0.000000 33.147579
RightShoulder -3.285839 1.087832 -22.354352
RightArm 7.080095 17.145802 57.200005
RightForeArm 0.213711 -0.000000 19.253479
RightHand 2.263208 -0.000000 13.504412
RightHandThumb1 -24.326973 -0.000000 -32.862282
LeftUpLeg -21.040973 10.312173 22.666355
LeftLeg 8.185515 -0.000000 -0.000000
LeftFoot -8.132221 14.652303 -18.633699
LeftToeBase -3.558965 -0.000000 0.000000
RightUpLeg -13.819470 -13.814345 -24.160671
RightLeg 79.399462 -0.000000 -0.000000
RightFoot 41.577638 -16.445813 -0.171333
RightToeBase 32.622657 -0.000000 -0.000000
3217
root 0.855429 34.420649 -5.504236 27.785823 -14.197552 -29.605380
Spine -8.528129 7.891417 10.002258
Head 14.408117 -0.542404 11.404571
LeftShoulder -19.271754 41.045126 17.724620
LeftArm 60.155546 -34.476257 -75.887347
LeftForeArm 0.963773 -0.000000 7.732299
LeftHand 10.676611 -0.000000 2.156333
LeftHandThumb1 -26.253704 0.000000 33.147579
RightShoulder -3.257734 1.021497 -22.471522
RightArm 7.038482 17.066850 57.353247
RightForeArm 0.027090 -0.000000 18.791640
RightHand 2.312932 -0.000000 13.493458
RightHandThumb1 -24.326973 -0.000000 -32.862282
LeftUpLeg -20.776666 10.328606 22.457998
LeftLeg 8.020827 -0.000000 -0.000000
LeftFoot -7.955049 14.345966 -18.849047
LeftToeBase -3.699292 -0.000000 0.000000
RightUpLeg -13.558702 -13.744477 -23.699549
RightLeg 78.427709 -0.000000 -0.000000
RightFoot 41.584288 -16.568681 -0.130915
RightToeBase 32.580168 -0.000000 -0.000000
3218
root 0.842258 34.426418 -5.454906 27.598721 -14.254890 -29.384075
Spine -8.594477 7.693925 9.811081
Head 14.614637 -0.379306 11.044293
LeftShoulder -19.240052 41.000407 17.599273
LeftArm 60.151229 -34.068082 -76.103852
LeftForeArm 1.093271 0.000000 7.778243
LeftHand 10.629997 -0.000000 2.183744
LeftHandThumb1 -26.253704 0.000000 33.147579
RightShoulder -3.264317 1.060358 -22.622266
RightArm 6.931732 16.889668 57.459319
RightForeArm 0.123799 -0.000000 18.264988
RightHand 2.163459 -0.000000 13.241548
RightHandThumb1 -24.326973 -0.000000 -32.862282
LeftUpLeg -20.500190 10.391401 22.252506
LeftLeg 7.868698 -0.000000 -0.000000
LeftFoot -7.760851 14.010758 -18.933289
LeftToeBase -3.867192 -0.000000 0.000000
RightUpLeg -13.315111 -13.624568 -23.214941
RightLeg 77.463587 -0.000000 -0.000000
RightFoot 41.507668 -16.716105 -0.030036
RightToeBase 32.785956 -0.000000 -0.000000
3219
root 0.827476 34.430317 -5.399106 27.429605 -14.245047 -29.170261
Spine -8.720068 7.479480 9.670248
Head 14.849626 -0.267479 10.649690
LeftShoulder -19.211066 40.989131 17.450421
LeftArm 60.180015 -33.690859 -76.359675
LeftForeArm 1.329074 -0.000000 7.829739
LeftHand 10.641998 -0.000000 2.169217
LeftHandThumb1 -26.253704 0.000000 33.147579
RightShoulder -3.292889 1.012627 -22.749117
RightArm 6.853533 16.822275 57.544290
RightForeArm 0.154586 -0.000000 17.755618
RightHand 2.228636 -0.000000 13.479558
RightHandThumb1 -24.326973 -0.000000 -32.862282
LeftUpLeg -20.257367 10.408413 22.078985
LeftLeg 7.734360 -0.000000 -0.000000
LeftFoot -7.581347 13.671582 -19.023403
LeftToeBase -4.176950 -0.000000 0.000000
RightUpLeg -13.038676 -13.593597 -22.687840
RightLeg 76.450485 -0.000000 -0.000000
RightFoot 41.503904 -16.769167 -0.065504
RightToeBase 32.682917 -0.000000 -0.000000
3220
root 0.814894 34.431065 -5.347400 27.225197 -14.298485 -28.948955
Spine -8.765065 7.299871 9.527401
Head 14.999618 -0.092331 10.194352
LeftShoulder -19.239651 40.933534 17.232978
LeftArm 60.148636 -33.322971 -76.531534
LeftForeArm 1.580334 0.000000 7.885493
LeftHand 10.554557 0.000000 2.170056
LeftHandThumb1 -26.253704 0.000000 33.147579
RightShoulder -3.277250 0.913669 -22.895461
RightArm 6.807933 16.825295 57.628930
RightForeArm 0.334160 -0.000000 17.280222
RightHand 2.271477 -0.000000 13.394095
RightHandThumb1 -24.326973 -0.000000 -32.862282
LeftUpLeg -19.972548 10.419160 21.879148
LeftLeg 7.611730 -0.000000 -0.000000
LeftFoot -7.599123 13.419815 -19.235544
LeftToeBase -3.872682 -0.000000 0.000000
RightUpLeg -12.794505 -13.475072 -22.175123
RightLeg 75.470638 -0.000000 -0.000000
RightFoot 41.505818 -16.800533 -0.081941
RightToeBase 32.563158 -0.000000 -0.000000
3221
root 0.804593 34.427802 -5.295614 27.027787 -14.370107 -28.720964
Spine -8.821189 7.158854 9.365128
Head 15.111971 0.054366 9.781735
LeftShoulder -19.291380 40.893036 17.029927
LeftArm 60.118794 -32.917040 -76.683837
LeftForeArm 1.720120 -0.000000 7.910156
LeftHand 10.651870 0.000000 2.284946
LeftHandThumb1 -26.253704 0.000000 33.147579
RightShoulder -3.281509 0.862041 -23.016439
RightArm 6.751487 16.899617 57.677853
RightForeArm 0.543843 -0.000000 16.736689
RightHand 2.307888 -0.000000 13.011506
RightHandThumb1 -24.326973 -0.000000 -32.862282
LeftUpLeg -19.701049 10.374924 21.672864
LeftLeg 7.522248 -0.000000 -0.000000
LeftFoot -7.500072 13.258032 -19.156738
LeftToeBase -4.089644 -0.000000 0.000000
RightUpLeg -12.577898 -13.367936 -21.684913
RightLeg 74.488396 -0.000000 -0.000000
RightFoot 41.545659 -16.720946 -0.095669
RightToeBase 32.610711 -0.000000 -0.000000
3222
root 0.794237 34.420462 -5.244087 26.835430 -14.467680 -28.519003
Spine -8.866474 7.032052 9.234693
Head 15.199940 0.240314 9.366464
LeftShoulder -19.383181 40.869012 16.810555
LeftArm 60.051385 -32.516865 -76.841215
LeftForeArm 1.913098 0.000000 7.964590
LeftHand 10.650909 0.000000 2.415698
LeftHandThumb1 -26.253704 0.000000 33.147579
RightShoulder -3.247732 0.918950 -23.167771
RightArm 6.561399 16.964445 57.704442
RightForeArm 0.669277 0.000000 16.254166
RightHand 2.364931 -0.000000 13.261440
RightHandThumb1 -24.326973 -0.000000 -32.862282
LeftUpLeg -19.421622 10.334998 21.470643
LeftLeg 7.443422 -0.000000 -0.000000
LeftFoot -7.446531 13.169814 -19.004270
LeftToeBase -4.294446 -0.000000 0.000000
RightUpLeg -12.391128 -13.181023 -21.157504
RightLeg 73.528883 -0.000000 -0.000000
RightFoot 41.514681 -16.544604 -0.108361
RightToeBase 32.738115 -0.000000 -0.000000
3223
root 0.787791 34.409911 -5.200758 26.686943 -14.616436 -28.299486
Spine -8.926014 6.976678 9.057700
Head 15.213735 0.401216 8.978215
LeftShoulder -19.451212 40.848961 16.625915
LeftArm 59.901167 -32.120978 -76.932469
LeftForeArm 1.910417 0.000000 8.073063
LeftHand 10.653783 0.000000 2.481800
LeftHandThumb1 -26.253704 0.000000 33.147579
RightShoulder -3.255714 1.008836 -23.281493
RightArm 6.395495 17.025173 57.678198
RightForeArm 0.944753 -0.000000 15.753846
RightHand 2.480779 -0.000000 13.261077
RightHandThumb1 -24.326973 -0.000000 -32.862282
LeftUpLeg -19.211856 10.279072 21.228150
LeftLeg 7.405758 -0.000000 -0.000000
LeftFoot -7.405880 13.205738 -18.749462
LeftToeBase -4.600232 -0.000000 0.000000
RightUpLeg -12.318757 -12.957570 -20.646688
RightLeg 72.614743 -0.000000 -0.000000
RightFoot 41.528857 -16.299400 -0.136934
RightToeBase 32.740096 -0.000000 -0.000000
3224
root 0.781143 34.395467 -5.158949 26.541861 -14.756267 -28.099225
Spine -8.981068 6.960873 8.910508
Head 15.185614 0.563207 8.592686
LeftShoulder -19.481707 40.849672 16.462738
LeftArm 59.799498 -31.799852 -77.104448
LeftForeArm 2.049524 -0.000000 8.149471
LeftHand 10.697231 -0.000000 2.432985
LeftHandThumb1 -26.253704 0.000000 33.147579
RightShoulder -3.315504 1.065830 -23.350365
RightArm 6.284541 17.016770 57.568664
RightForeArm 1.416000 -0.000000 15.254832
RightHand 2.341364 -0.000000 13.039676
RightHandThumb1 -24.326973 -0.000000 -32.862282
LeftUpLeg -19.017131 10.157777 21.010291
LeftLeg 7.384130 -0.000000 -0.000000
LeftFoot -7.406602 13.361490 -18.425489
LeftToeBase -4.858020 -0.000000 0.000000
RightUpLeg -12.267141 -12.769266 -20.107974
RightLeg 71.707591 -0.000000 -0.000000
RightFoot 41.569813 -16.011396 -0.332511
RightToeBase 32.706299 -0.000000 -0.000000
